<svg height="511pt" fill="white" viewBox="-106 0 511 511.99973" width="511pt" xmlns="http://www.w3.org/2000/svg"><path d="m300.507812 235.210938v-65.195313c0-21.84375-17.773437-39.617187-39.621093-39.617187-9.601563 0-18.414063 3.4375-25.277344 9.140624-6.9375-11.515624-19.5625-19.234374-33.957031-19.234374-4.796875 0-9.394532.859374-13.65625 2.429687l10.261718-77.941406c2.851563-21.660157-12.449218-41.597657-34.109374-44.453125-21.65625-2.847656-41.597657 12.453125-44.449219 34.113281l-13.542969 102.871094-27.761719-103.621094c-2.730469-10.1875-9.292969-18.71875-18.480469-24.023437-9.183593-5.304688-19.855468-6.722657-30.042968-3.992188-10.191406 2.730469-18.722656 9.292969-24.023438 18.476562-5.304687 9.1875-6.71875 19.855469-3.988281 30.046876l3.269531 12.214843c1.429688 5.332031 6.914063 8.5 12.25 7.070313 5.332032-1.429688 8.496094-6.914063 7.070313-12.246094l-3.273438-12.214844c-1.347656-5.03125-.640625-10.3125 1.988281-14.871094 2.632813-4.558593 6.851563-7.8125 11.882813-9.160156 5.027344-1.34375 10.308594-.636718 14.867187 1.996094 4.5625 2.632812 7.8125 6.851562 9.160157 11.878906l40.777343 152.179688c.246094.929687.628907 1.789062 1.105469 2.578125h-31.121093c-3.308594 0-6.523438.414062-9.597657 1.183593l-15.085937-56.300781c-1.429688-5.332031-6.910156-8.5-12.246094-7.070312-5.335938 1.429687-8.5 6.914062-7.070312 12.25l16.390624 61.179687c-7.398437 7.203125-12.003906 17.257813-12.003906 28.375v71.117188c0 41.394531 19 80.035156 50.765625 105.441406v92.1875c0 5.523438 4.476563 10 10 10 5.523438 0 10-4.476562 10-10v-78.9375c1.386719.667969 2.855469 1.003906 4.3125 1.003906 3.53125 0 6.957031-1.875 8.777344-5.191406 2.65625-4.839844.882813-10.917969-3.957031-13.578125-36.949219-20.269531-59.902344-58.945313-59.902344-100.925781v-71.117188c0-6.707031 3.390625-12.632812 8.539062-16.171875.136719-.082031.265626-.171875.394532-.257812 3.078125-2.007813 6.742187-3.1875 10.683594-3.1875h72.582031c10.816406 0 19.617187 8.800781 19.617187 19.617187s-8.800781 19.617188-19.617187 19.617188h-42.960938c-5.523437 0-10 4.476562-10 10 0 5.523437 4.476563 10 10 10h12.214844.007813c30.992187 0 60.082031 16.539062 75.921874 43.164062 1.871094 3.140625 5.191407 4.886719 8.605469 4.886719 1.738281 0 3.5-.453125 5.101563-1.40625 4.746094-2.824219 6.304687-8.960937 3.480468-13.707031-.542968-.917969-1.109374-1.824219-1.679687-2.722656 19.199219-.695313 34.957031-15.113282 37.726563-33.71875 5.886718 3.472656 12.738281 5.472656 20.054687 5.472656 7.132813 0 13.828125-1.90625 19.617187-5.222656v34.753906c0 48.121094-30.5 91.609375-75.894531 108.210937-5.1875 1.898438-7.855469 7.640625-5.957031 12.828125 1.480469 4.050782 5.3125 6.566406 9.390625 6.566406 1.140625 0 2.300781-.195312 3.433594-.609374 14.574219-5.332032 27.828125-13.039063 39.410156-22.5625v93.195312c0 5.523438 4.476563 10 10 10s10-4.476562 10-10v-113.507812c18.707031-23.460938 29.617187-52.953126 29.617187-84.121094v-69.128906c0-.007813 0-.015626 0-.019532s0-.007812 0-.011718zm-158.089843-41.574219h-24.351563c.695313-1.152344 1.171875-2.457031 1.359375-3.859375l20.101563-152.714844c1.414062-10.726562 11.292968-18.300781 22.011718-16.890625 10.726563 1.410156 18.300782 11.285156 16.890626 22.011719l-13.570313 103.082031c-1.8125 4.535156-2.820313 9.480469-2.820313 14.65625v38.933594c-5.789062-3.3125-12.484374-5.21875-19.621093-5.21875zm78.851562 69.871093c0 10.816407-8.796875 19.617188-19.617187 19.617188-10.816406 0-19.617188-8.800781-19.617188-19.617188v-103.585937c0-2.730469.5625-5.328125 1.578125-7.695313.027344-.0625.0625-.125.089844-.191406 3.042969-6.898437 9.9375-11.730468 17.949219-11.730468 10.820312 0 19.617187 8.800781 19.617187 19.617187zm39.621094-8.667968c-10.820313 0-19.621094-8.800782-19.621094-19.617188v-65.207031c0-10.816406 8.800781-19.617187 19.621094-19.617187 10.816406 0 19.617187 8.800781 19.617187 19.617187v65.214844c-.003906 10.8125-8.804687 19.609375-19.617187 19.609375zm0 0"/><path d="m213.574219 353.453125c2.085937 0 4.191406-.652344 5.992187-2 4.417969-3.316406 5.3125-9.582031 2-14l-.003906-.007813c-3.316406-4.417968-9.582031-5.308593-14-1.996093s-5.308594 9.585937-1.996094 14.003906c1.964844 2.617187 4.96875 4 8.007813 4zm0 0"/><path d="m34.921875 100.382812-.003906-.007812c-1.15625-5.398438-6.46875-8.835938-11.871094-7.679688-5.398437 1.15625-8.839844 6.476563-7.683594 11.875 1.007813 4.695313 5.15625 7.910157 9.769531 7.910157.695313 0 1.398438-.074219 2.105469-.226563 5.398438-1.15625 8.839844-6.472656 7.683594-11.871094zm0 0"/></svg>